<svg xmlns="http://www.w3.org/2000/svg" width="512" height="512" viewBox="0 0 512 512"><defs><linearGradient id="a" x1="0%" y1="0%" x2="100%" y2="100%"><stop offset="0%" stop-color="#4f46e5"/><stop offset="100%" stop-color="#7c3aed"/></linearGradient></defs><rect width="512" height="512" fill="url(#a)" rx="128"/><path fill="#fff" d="M176 352h-48V160h48v192zm80 0h-48V160h48v192zm80 0h-48V160h48v192z"/><path fill="#fff" d="M384 192c-26.5 0-48 21.5-48 48s21.5 48 48 48 48-21.5 48-48-21.5-48-48-48zm0 64c-8.8 0-16-7.2-16-16s7.2-16 16-16 16 7.2 16 16-7.2 16-16 16zM128 240c0-26.5-21.5-48-48-48S32 213.5 32 240s21.5 48 48 48 48-21.5 48-48zm-64 0c0-8.8 7.2-16 16-16s16 7.2 16 16-7.2 16-16 16-16-7.2-16-16z"/></svg>
